<svg width="24" height="24" viewBox="0 0 24 24" fill="currentColor" xmlns="http://www.w3.org/2000/svg">
    <path
        d="M19.75 15.375C19.75 16.1133 19.2578 16.7461 18.625 16.9922V19.3125H18.9062C19.3633 19.3125 19.75 19.6992 19.75 20.1562C19.75 20.6484 19.3633 21 18.9062 21H6.8125C5.23047 21 4 19.7695 4 18.1875V5.8125C4 4.26562 5.23047 3 6.8125 3H18.0625C18.9766 3 19.75 3.77344 19.75 4.6875V15.375ZM16.9375 19.3125V17.0625H6.8125C6.17969 17.0625 5.6875 17.5898 5.6875 18.1875C5.6875 18.8203 6.17969 19.3125 6.8125 19.3125H16.9375ZM18.0625 15.375V4.6875H6.8125C6.17969 4.6875 5.6875 5.21484 5.6875 5.8125V15.6211C6.00391 15.4805 6.39062 15.375 6.8125 15.375H18.0625ZM9.34375 8.625C8.85156 8.625 8.5 8.27344 8.5 7.78125C8.5 7.32422 8.85156 6.9375 9.34375 6.9375H15.5312C15.9883 6.9375 16.375 7.32422 16.375 7.78125C16.375 8.27344 15.9883 8.625 15.5312 8.625H9.34375ZM9.34375 11.4375C8.85156 11.4375 8.5 11.0859 8.5 10.5938C8.5 10.1367 8.85156 9.75 9.34375 9.75H15.5312C15.9883 9.75 16.375 10.1367 16.375 10.5938C16.375 11.0859 15.9883 11.4375 15.5312 11.4375H9.34375Z" />
</svg>