<svg width="24" height="24" viewBox="0 0 24 24" fill="currentColor" xmlns="http://www.w3.org/2000/svg">
    <path
        d="M8.31586 12C8.31586 10.1367 9.79242 8.625 11.6909 8.625C13.5541 8.625 15.0659 10.1367 15.0659 12C15.0659 13.8633 13.5541 15.375 11.6909 15.375C9.79242 15.375 8.31586 13.8633 8.31586 12ZM11.6909 10.3125C10.7416 10.3125 10.0034 11.0859 10.0034 12C10.0034 12.9492 10.7416 13.6875 11.6909 13.6875C12.6049 13.6875 13.3784 12.9492 13.3784 12C13.3784 11.0859 12.6049 10.3125 11.6909 10.3125ZM12.9916 3C13.7651 3 14.433 3.5625 14.6088 4.30078L14.8901 5.46094C15.2065 5.60156 15.4877 5.77734 15.7338 5.95312L16.894 5.60156C17.6323 5.39062 18.4409 5.70703 18.8276 6.375L20.1284 8.66016C20.5151 9.32812 20.3745 10.1719 19.812 10.6992L18.9682 11.5078C18.9682 11.6836 19.0034 11.8594 19.0034 12C19.0034 12.1758 18.9682 12.3516 18.9682 12.4922L19.812 13.3359C20.3745 13.8633 20.5151 14.707 20.1284 15.375L18.8276 17.6602C18.4409 18.3281 17.6323 18.6445 16.894 18.4336L15.7338 18.082C15.4877 18.2578 15.2065 18.4336 14.8901 18.5742L14.6088 19.7344C14.433 20.4727 13.7651 21 12.9916 21H10.3549C9.58148 21 8.91352 20.4727 8.73773 19.7344L8.45648 18.5742C8.14008 18.4336 7.85883 18.2578 7.61273 18.082L6.45258 18.4336C5.7143 18.6445 4.9057 18.3281 4.51898 17.6602L3.2182 15.375C2.83148 14.707 2.97211 13.8633 3.53461 13.3359L4.37836 12.4922C4.37836 12.3516 4.37836 12.1758 4.37836 12C4.37836 11.8594 4.37836 11.6836 4.37836 11.5078L3.53461 10.6992C2.97211 10.1719 2.83148 9.32812 3.2182 8.66016L4.51898 6.375C4.9057 5.70703 5.7143 5.39062 6.45258 5.60156L7.61273 5.95312C7.85883 5.77734 8.14008 5.60156 8.45648 5.46094L8.73773 4.30078C8.91352 3.5625 9.58148 3 10.3549 3H12.9916ZM9.89789 6.65625L9.51117 6.83203C9.05414 7.00781 8.63227 7.25391 8.2807 7.53516L7.92914 7.81641L5.99555 7.21875L4.69477 9.50391L6.13617 10.875L6.10102 11.2969C6.06586 11.543 6.06586 11.7891 6.06586 12C6.06586 12.2461 6.06586 12.4922 6.10102 12.7383L6.13617 13.1602L4.69477 14.5312L5.99555 16.8164L7.92914 16.2188L8.2807 16.5C8.63227 16.7812 9.05414 17.0273 9.51117 17.2031L9.89789 17.3789L10.3549 19.3125H12.9916L13.4487 17.3789L13.8354 17.2031C14.2924 17.0273 14.7143 16.7812 15.0659 16.5L15.4174 16.2188L17.351 16.8164L18.6518 14.5312L17.2104 13.1602L17.2455 12.7383C17.2807 12.4922 17.3159 12.2461 17.3159 12C17.3159 11.7891 17.2807 11.543 17.2455 11.2969L17.2104 10.875L18.6518 9.50391L17.351 7.21875L15.4174 7.81641L15.0659 7.53516C14.7143 7.25391 14.2924 7.00781 13.8354 6.83203L13.4487 6.65625L12.9916 4.6875H10.3549L9.89789 6.65625Z" />
</svg>